<svg width="313" height="327" viewBox="0 0 313 327" fill="none" xmlns="http://www.w3.org/2000/svg">
<path d="M201.966 78.1466C223.455 78.1466 240.876 60.7259 240.876 39.2364C240.876 17.747 223.455 0.326294 201.966 0.326294C180.476 0.326294 163.055 17.747 163.055 39.2364C163.055 60.7259 180.476 78.1466 201.966 78.1466Z" fill="#EBEBEB"/>
<path opacity="0.1" d="M180.737 18.0082C189.102 9.4667 202.519 6.61613 213.667 10.9855C232.072 17.9061 239.392 40.5401 228.453 56.9372C220.305 69.4866 203.58 74.3926 189.977 68.1784C170.236 59.4153 165.475 33.1316 180.737 18.0082ZM180.737 18.0082C172.271 26.2747 169.785 39.7961 174.744 50.5124C183.012 69.0325 207.68 73.4765 221.884 59.1545C236.218 44.9519 231.775 20.2726 213.244 12.0093C202.526 7.0522 189.004 9.53978 180.737 18.0082Z" fill="black"/>
<g opacity="0.1">
<path d="M201.449 49.5671C201.852 50.7363 201.207 51.9855 200.038 52.3886C199.877 52.4287 199.554 52.5096 199.151 52.5096C199.151 52.5096 199.151 52.5096 199.111 52.5096C198.708 52.5096 198.103 52.4287 197.539 52.0665C197.015 51.7443 196.572 51.2203 196.249 50.6561C195.685 49.487 195.403 48.0365 195.403 45.8193C195.363 45.0532 195.201 44.5291 194.919 44.086C194.677 43.6428 194.193 43.2398 193.709 42.9168C192.862 42.3527 191.815 42.0298 191.452 41.9496H186.695V50.6962C186.695 51.9054 185.687 52.9127 184.438 52.9127C183.189 52.9127 182.221 51.9054 182.221 50.6962V26.9142C182.221 25.6649 183.189 24.6969 184.438 24.6969C184.438 24.6969 184.438 24.6969 184.478 24.6969H191.652C196.449 24.6969 200.278 28.5665 200.278 33.3633C200.278 36.0238 199.069 38.3613 197.134 39.9735C197.658 40.3766 198.142 40.8606 198.545 41.4648C199.352 42.634 199.876 44.1253 199.876 45.8177C199.836 47.0269 199.957 47.793 200.037 48.196C200.683 48.398 201.207 48.882 201.449 49.5671ZM195.806 33.3633C195.806 31.0258 193.952 29.1715 191.655 29.1715H186.697V37.475H191.655C193.952 37.475 195.806 35.6207 195.806 33.3633Z" fill="black"/>
<path d="M212.65 23.915C213.5 23.915 214.172 24.5876 214.172 25.4362V26.2148C216.259 26.4623 218.029 27.1349 219.656 28.161C220.222 28.4793 220.717 29.0104 220.717 29.8597C220.717 30.9566 219.833 31.806 218.736 31.806C218.382 31.806 218.028 31.6999 217.674 31.4878C216.436 30.7445 215.233 30.2141 214.03 29.9313V36.7245C219.408 38.0689 221.708 40.2272 221.708 44.0136C221.708 47.906 218.665 50.4887 214.172 50.913V53.036C214.172 53.8853 213.499 54.5571 212.65 54.5571C211.801 54.5571 211.093 53.8845 211.093 53.036V50.8422C208.44 50.5594 205.998 49.604 203.839 48.0828C203.238 47.6939 202.884 47.1274 202.884 46.3841C202.884 45.2873 203.733 44.4379 204.83 44.4379C205.255 44.4379 205.68 44.5793 205.998 44.8268C207.66 46.0298 209.288 46.8438 211.235 47.1973V40.2272C206.069 38.8829 203.663 36.9367 203.663 32.9382C203.663 29.1526 206.67 26.5338 211.093 26.1802V25.437C211.093 24.5876 211.801 23.915 212.65 23.915ZM211.235 35.9812V29.7183C208.97 29.9305 207.838 31.1334 207.838 32.6907C207.838 34.1765 208.511 35.0965 211.235 35.9812ZM214.03 40.899V47.3388C216.295 47.0912 217.533 45.959 217.533 44.2603C217.533 42.7038 216.754 41.7484 214.03 40.899Z" fill="black"/>
</g>
<path d="M297.408 212.101C283.3 230.075 257.45 241.69 239.672 238.036C221.898 234.385 218.924 216.847 233.03 198.869C247.143 180.886 272.993 169.271 290.77 172.925C308.548 176.578 311.522 194.117 297.408 212.101Z" fill="#EBEBEB"/>
<g opacity="0.1">
<path d="M258.012 214.038C257.575 215.086 256.22 216.022 254.991 216.159C254.832 216.166 254.512 216.179 254.178 216.111C253.81 216.035 253.364 215.864 253.136 215.464C252.915 215.105 252.89 214.593 252.994 214.066C253.295 212.994 254.015 211.73 255.471 209.875C255.939 209.229 256.152 208.761 256.206 208.343C256.299 207.93 256.165 207.51 255.975 207.158C255.646 206.542 254.99 206.095 254.74 205.967L250.805 205.159L245.063 212.476C244.269 213.487 242.776 214.16 241.742 213.948C240.709 213.736 240.57 212.728 241.364 211.716L256.979 191.818C257.799 190.772 259.235 190.128 260.269 190.34L266.237 191.567C270.206 192.382 270.83 196.271 267.68 200.285C265.935 202.509 263.398 204.261 260.739 205.281C260.909 205.709 260.991 206.194 260.929 206.769C260.827 207.883 260.282 209.222 259.172 210.637C258.345 211.641 257.939 212.303 257.741 212.655C258.144 212.931 258.258 213.426 258.012 214.038ZM257.847 202.258C259.745 202.648 262.499 201.413 263.982 199.524C265.518 197.566 265.198 195.7 263.3 195.309L259.196 194.466L253.743 201.414L257.847 202.258Z" fill="black"/>
</g>
<g opacity="0.1">
<path d="M276.851 205.432C280.417 207.473 280.902 209.669 278.417 212.836C275.861 216.093 271.65 217.738 267.654 217.328L266.26 219.105C265.702 219.816 264.703 220.263 264.001 220.118C263.298 219.974 263.153 219.292 263.711 218.581L265.152 216.745C263.141 216.058 261.75 214.843 260.964 213.205C260.72 212.776 260.801 212.242 261.288 211.621C262.008 210.703 263.268 210.137 264.176 210.324C264.526 210.396 264.786 210.587 264.886 210.848C265.472 212.135 266.282 213.095 267.661 213.72L272.237 207.889C268.849 205.884 268.134 203.85 270.76 200.504C273.245 197.336 277.451 195.658 281.344 196.112L281.831 195.492C282.389 194.781 283.417 194.337 284.12 194.481C284.822 194.626 284.937 195.305 284.38 196.015L283.868 196.666C285.434 197.226 286.454 198.091 287.127 199.227C287.389 199.587 287.446 200.117 286.889 200.828C286.168 201.747 284.881 202.307 283.973 202.12C283.678 202.059 283.457 201.909 283.302 201.672C282.767 200.838 282.121 200.19 281.309 199.749L276.851 205.432ZM269.882 214.313C271.916 214.493 273.685 213.755 274.8 212.334C275.823 211.031 275.807 210.099 274.11 208.925L269.882 214.313ZM275.025 204.337L279.137 199.098C277.127 198.891 275.4 199.702 274.378 201.005C273.401 202.249 273.352 203.133 275.025 204.337Z" fill="black"/>
</g>
<g opacity="0.1">
<path d="M293.449 183.838C304.134 192.755 295.326 212.939 275.514 224.796C264.919 231.242 253.284 233.761 244.841 232.026C241.346 231.308 238.399 229.862 236.298 227.662C226.166 217.423 237.961 196.073 258.795 185.451C247.55 191.238 238.009 201.225 235.297 210.288C232.116 220.399 237.096 227.294 246.14 229.153C252.215 230.401 260.123 229.378 268.624 225.533C289.807 216.086 302.334 194.686 292.428 184.621C290.494 182.564 287.704 181.19 284.371 180.505C278.381 179.274 270.639 180.266 262.949 183.518C271.119 180.054 279.373 178.972 285.755 180.284C288.824 180.915 291.46 182.1 293.449 183.838Z" fill="black"/>
</g>
<path d="M303.75 181.052L310.037 190.98C314.862 198.599 312.964 210.216 303.696 222.026C289.588 240.004 263.737 251.619 245.96 247.965C239.858 246.711 235.501 243.821 232.979 239.839L226.693 229.912C229.214 233.894 233.572 236.784 239.674 238.038C257.45 241.691 283.3 230.077 297.41 212.099C306.677 200.29 308.575 188.671 303.75 181.052Z" fill="#EBEBEB"/>
<g opacity="0.1">
<path d="M303.75 181.052L310.037 190.98C314.862 198.599 312.964 210.216 303.696 222.026C289.588 240.004 263.737 251.619 245.96 247.965C239.858 246.711 235.501 243.821 232.979 239.839L226.693 229.912C229.214 233.894 233.572 236.784 239.674 238.038C257.45 241.691 283.3 230.077 297.41 212.099C306.677 200.29 308.575 188.671 303.75 181.052Z" fill="black"/>
</g>
<path d="M290.104 105.693C274.969 111.803 254.827 109.797 245.118 101.207C235.41 92.6209 239.81 80.7008 254.943 74.5872C270.084 68.4728 290.226 70.4803 299.935 79.0697C309.645 87.6591 305.245 99.5792 290.104 105.693Z" fill="#EBEBEB"/>
<g opacity="0.1">
<path d="M265.017 92.8723C264.373 93.3657 263.201 93.4632 262.392 93.1104C262.291 93.0585 262.088 92.9524 261.906 92.7914C261.704 92.6138 261.489 92.349 261.49 92.0206C261.481 91.7197 261.648 91.3936 261.899 91.1037C262.467 90.5466 263.364 90.0202 264.925 89.3892C265.444 89.1559 265.743 88.9422 265.925 88.7025C266.13 88.4794 266.196 88.1722 266.204 87.8862C266.219 87.388 265.972 86.8765 265.863 86.7099L263.714 84.8085L257.554 87.2961C256.703 87.6402 255.539 87.5255 254.974 87.0258C254.41 86.5261 254.682 85.8527 255.534 85.5086L272.286 78.7428C273.166 78.3877 274.285 78.4992 274.849 78.9982L278.109 81.8817C280.277 83.7997 279.279 86.4294 275.9 87.7942C274.028 88.5501 271.834 88.7332 269.823 88.4181C269.776 88.7434 269.654 89.0734 269.411 89.4065C268.953 90.0602 268.138 90.6959 266.947 91.1767C266.077 91.5044 265.59 91.7699 265.342 91.9177C265.492 92.2335 265.387 92.5808 265.017 92.8723ZM269.107 85.518C270.144 86.4349 272.289 86.6502 273.879 86.0083C275.527 85.3428 275.993 84.0731 274.956 83.1562L272.715 81.1738L266.866 83.5357L269.107 85.518Z" fill="black"/>
</g>
<g opacity="0.1">
<path d="M279.747 94.2475C281.229 96.7807 280.748 98.3128 278.082 99.39C275.34 100.497 272.146 100.017 269.818 98.3419L268.322 98.9461C267.724 99.1873 266.947 99.1087 266.563 98.7693C266.18 98.4299 266.332 97.9561 266.93 97.7149L268.476 97.0902C267.475 95.9494 267.047 94.7017 267.143 93.4068C267.144 93.0548 267.384 92.7523 267.907 92.5417C268.68 92.2298 269.661 92.3272 270.157 92.7664C270.348 92.9354 270.441 93.1459 270.411 93.3439C270.315 94.3497 270.476 95.232 271.107 96.1104L276.017 94.1273C274.632 91.6806 274.913 90.1657 277.73 89.028C280.396 87.9516 283.599 88.4089 285.848 90.0754L286.37 89.8648C286.968 89.6236 287.763 89.7147 288.147 90.0534C288.53 90.3928 288.36 90.8548 287.762 91.096L287.213 91.3176C287.984 92.2212 288.308 93.12 288.32 94.0629C288.354 94.3795 288.201 94.7284 287.602 94.9696C286.829 95.2815 285.833 95.1707 285.337 94.7323C285.176 94.5901 285.093 94.4188 285.081 94.2161C285.046 93.5089 284.877 92.878 284.531 92.3162L279.747 94.2475ZM272.27 97.267C273.466 98.103 274.824 98.2751 276.02 97.7919C277.117 97.3487 277.439 96.7657 276.806 95.4347L272.27 97.267ZM279.006 92.9189L283.417 91.1377C282.246 90.2938 280.887 90.1822 279.791 90.6254C278.742 91.0481 278.398 91.5777 279.006 92.9189Z" fill="black"/>
</g>
<g opacity="0.1">
<path d="M297.711 86.7807C301.154 96.1063 288.516 105.471 272.026 105.764C263.171 105.985 255.068 103.404 250.458 99.3246C248.549 97.6361 247.239 95.6914 246.72 93.5818C244.089 83.6354 258.992 74.6107 275.674 75.4475C266.651 75.0295 257.187 77.8188 252.283 82.4663C246.714 87.5962 247.344 93.6384 252.284 98.0085C255.602 100.944 260.863 103.124 267.496 103.769C283.976 105.457 299.351 96.6618 296.798 86.9032C296.332 84.9413 295.093 83.0972 293.273 81.4865C290.002 78.5927 284.853 76.4517 278.934 75.7288C285.227 76.4917 290.723 78.7593 294.209 81.8424C295.886 83.3251 297.098 84.9963 297.711 86.7807Z" fill="black"/>
</g>
<path d="M305.081 88.722L305.441 97.108C305.718 103.544 300.407 110.063 290.465 114.079C275.329 120.191 255.186 118.184 245.478 109.595C242.146 106.647 240.475 103.306 240.331 99.9428L239.971 91.5569C240.115 94.9205 241.786 98.2606 245.118 101.209C254.827 109.798 274.97 111.805 290.105 105.693C300.047 101.677 305.358 95.1578 305.081 88.722Z" fill="#EBEBEB"/>
<g opacity="0.1">
<path d="M305.081 88.722L305.441 97.108C305.718 103.544 300.407 110.063 290.465 114.079C275.329 120.191 255.186 118.184 245.478 109.595C242.146 106.647 240.475 103.306 240.331 99.9428L239.971 91.5569C240.115 94.9205 241.786 98.2606 245.118 101.209C254.827 109.798 274.97 111.805 290.105 105.693C300.047 101.677 305.358 95.1578 305.081 88.722Z" fill="black"/>
</g>
<path d="M40.7198 82.0342C56.8308 85.87 70.2634 101.689 70.7246 117.364C71.1843 133.045 58.4989 142.647 42.3878 138.811C26.2807 134.976 12.8473 119.16 12.3869 103.478C11.9265 87.8037 24.6126 78.2022 40.7198 82.0342Z" fill="#EBEBEB"/>
<path d="M13.5929 91.9036C9.65887 95.8157 7.39758 101.46 7.59715 108.242C8.05758 123.921 21.4902 139.739 37.5981 143.574C46.7391 145.749 54.7785 143.6 59.9383 138.469L64.728 133.706C59.5674 138.837 51.5288 140.987 42.3878 138.811C26.2799 134.976 12.8473 119.158 12.3869 103.479C12.1881 96.6973 14.4486 91.0527 18.3834 87.1406L13.5929 91.9036Z" fill="#EBEBEB"/>
<g opacity="0.1">
<path d="M48.2005 116.22C49.0027 116.558 49.5095 117.621 49.3586 118.589C49.3295 118.714 49.269 118.964 49.1363 119.228C48.9901 119.518 48.7473 119.873 48.3537 120.053C47.997 120.228 47.5507 120.25 47.1185 120.17C46.2621 119.938 45.3373 119.377 44.0629 118.239C43.6088 117.871 43.2544 117.709 42.9063 117.665C42.574 117.596 42.1819 117.705 41.8385 117.853C41.2375 118.115 40.7079 118.633 40.5421 118.828L38.9817 121.93L44.0079 126.419C44.7025 127.04 44.9508 128.214 44.5414 129.029C44.132 129.844 43.2347 129.957 42.5402 129.336L28.875 117.129C28.1569 116.488 27.9188 115.36 28.3282 114.545L30.6955 109.839C32.2678 106.713 35.7461 106.201 38.5032 108.664C40.033 110.031 40.979 112.018 41.2705 114.108C41.6751 113.972 42.1104 113.905 42.5905 113.952C43.5278 114.029 44.5563 114.451 45.5306 115.321C46.2118 115.968 46.6895 116.283 46.9488 116.437C47.2757 116.118 47.7267 116.027 48.2005 116.22ZM38.038 116.398C38.7908 114.902 38.3335 112.741 37.0363 111.582C35.6943 110.383 34.0183 110.639 33.2656 112.135L31.6384 115.369L36.4108 119.632L38.038 116.398Z" fill="black"/>
</g>
<g opacity="0.1">
<path d="M20.1261 96.8449C24.9205 84.6506 41.7309 83.3503 54.2575 94.2552C61.0335 100.043 65.036 108.279 65.2544 115.723C65.3447 118.806 64.7869 121.752 63.5078 124.334C57.6275 136.615 39.4398 136.036 27.6595 123.854C34.0545 130.4 43.2827 133.868 50.5914 132.296C58.7895 130.664 63.0882 123.851 62.8532 115.874C62.6961 110.516 60.4953 104.635 56.06 99.4441C45.1063 86.4531 26.7002 85.2894 20.9024 97.336C19.701 99.7253 19.1699 102.516 19.2555 105.456C19.4103 110.737 21.5593 116.499 25.4006 121.288C21.3118 116.203 19.0041 110.071 18.8391 104.443C18.7598 101.736 19.1754 99.1463 20.1261 96.8449Z" fill="black"/>
</g>
<g opacity="0.1">
<path d="M44.9467 101.425C47.4822 98.6067 49.4763 98.2154 51.6535 100.161C53.8905 102.16 54.3753 105.468 53.1464 108.617L54.365 109.706C54.853 110.142 55.0203 110.925 54.7422 111.479C54.464 112.032 53.8441 112.148 53.3562 111.712L52.0967 110.586C51.0619 112.17 49.7144 113.272 48.1296 113.899C47.7093 114.091 47.2693 114.031 46.841 113.648C46.2109 113.085 46.0011 112.096 46.361 111.38C46.4993 111.104 46.72 110.898 46.9675 110.818C48.205 110.354 49.2053 109.71 50.0483 108.623L46.0412 105.043C43.5764 107.722 41.6687 108.291 39.3697 106.238C37.1948 104.294 36.6763 100.991 37.9224 97.9239L37.4965 97.5436C37.0086 97.1075 36.8554 96.3014 37.1335 95.7482C37.4117 95.1943 38.0175 95.1016 38.5054 95.5377L38.9533 95.9376C39.7806 94.704 40.7478 93.8932 41.8714 93.3589C42.2391 93.1554 42.7074 93.1035 43.1953 93.5396C43.8263 94.1029 44.0235 95.1165 43.6644 95.8299C43.5473 96.0617 43.3705 96.2362 43.1325 96.3603C42.3004 96.7869 41.5995 97.2961 41.0425 97.9372L44.9467 101.425ZM51.0462 106.875C51.6465 105.27 51.4029 103.883 50.427 103.011C49.5321 102.212 48.7268 102.228 47.3455 103.568L51.0462 106.875ZM43.6015 102.865L40.003 99.6509C39.3815 101.236 39.7028 102.592 40.5978 103.392C41.4503 104.153 42.2006 104.189 43.6015 102.865Z" fill="black"/>
</g>
<path opacity="0.1" d="M13.5929 91.9036C9.65887 95.8157 7.39758 101.46 7.59715 108.242C8.05758 123.921 21.4902 139.739 37.5981 143.574C46.7391 145.749 54.7785 143.6 59.9383 138.469L64.728 133.706C59.5674 138.837 51.5288 140.987 42.3878 138.811C26.2799 134.976 12.8473 119.158 12.3869 103.479C12.1881 96.6973 14.4486 91.0527 18.3834 87.1406L13.5929 91.9036Z" fill="black"/>
<path d="M66.6496 172.714H52.8084C33.0359 172.714 17.0066 188.743 17.0066 208.515V273.513H102.451V208.515C102.451 188.743 86.4229 172.714 66.6496 172.714Z" fill="#EBEBEB"/>
<path d="M17.0067 273.514V259.733L5.01831 273.514H17.0067Z" fill="#EBEBEB"/>
<path d="M102.452 273.514V259.733L114.441 273.514H102.452Z" fill="#EBEBEB"/>
<path d="M72.9496 170.916H46.5095V173.717H72.9496V170.916Z" fill="#EBEBEB"/>
<path d="M72.9496 166.297H46.5095V169.098H72.9496V166.297Z" fill="#EBEBEB"/>
<path d="M79.8356 149.081L69.2418 164.478H50.2031L39.6313 149.081H79.8356Z" fill="#EBEBEB"/>
<path d="M59.1832 223.444C59.609 224.68 58.9278 226.001 57.6919 226.427C57.5214 226.47 57.1804 226.555 56.7545 226.555C56.7545 226.555 56.7545 226.555 56.7121 226.555C56.2855 226.555 55.6467 226.47 55.0495 226.086C54.4956 225.745 54.0265 225.191 53.6855 224.595C53.0892 223.359 52.7906 221.825 52.7906 219.481C52.7482 218.671 52.5777 218.117 52.2791 217.648C52.023 217.179 51.5122 216.754 51.0007 216.413C50.1058 215.816 48.998 215.475 48.6145 215.39H43.586V224.637C43.586 225.916 42.5205 226.981 41.1997 226.981C39.8782 226.981 38.856 225.916 38.856 224.637V199.493C38.856 198.172 39.879 197.149 41.1997 197.149C41.1997 197.149 41.1997 197.149 41.2422 197.149H48.8282C53.9 197.149 57.948 201.24 57.948 206.312C57.948 209.125 56.6697 211.597 54.6237 213.301C55.1776 213.727 55.6891 214.238 56.115 214.878C56.9675 216.114 57.5214 217.691 57.5214 219.481C57.479 220.759 57.607 221.569 57.6919 221.995C58.3731 222.208 58.9278 222.719 59.1832 223.444ZM53.2172 206.312C53.2172 203.84 51.2569 201.88 48.8275 201.88H43.5852V210.66H48.8275C51.2569 210.659 53.2172 208.698 53.2172 206.312Z" fill="white"/>
<path d="M71.0262 196.323C71.9243 196.323 72.6345 197.034 72.6345 197.931V198.755C74.8416 199.016 76.7124 199.727 78.4331 200.812C79.0318 201.149 79.5551 201.71 79.5551 202.608C79.5551 203.767 78.6201 204.665 77.4604 204.665C77.0864 204.665 76.7124 204.553 76.3384 204.328C75.0286 203.543 73.7565 202.982 72.4853 202.682V209.865C78.1723 211.287 80.604 213.569 80.604 217.572C80.604 221.686 77.3865 224.418 72.6353 224.867V227.112C72.6353 228.01 71.9243 228.72 71.027 228.72C70.1289 228.72 69.3809 228.009 69.3809 227.112V224.792C66.5751 224.493 63.9941 223.483 61.7115 221.874C61.0759 221.462 60.7019 220.864 60.7019 220.079C60.7019 218.919 61.6 218.021 62.7597 218.021C63.2083 218.021 63.6578 218.17 63.994 218.433C65.7525 219.705 67.4732 220.565 69.531 220.939V213.569C64.0687 212.148 61.5253 210.09 61.5253 205.862C61.5253 201.859 64.7051 199.091 69.3817 198.717V197.931C69.3801 197.034 70.1281 196.323 71.0262 196.323ZM69.5302 209.08V202.458C67.1361 202.682 65.9387 203.954 65.9387 205.6C65.9387 207.172 66.6498 208.145 69.5302 209.08ZM72.4853 214.28V221.089C74.8793 220.828 76.1891 219.63 76.1891 217.835C76.1891 216.188 75.3657 215.178 72.4853 214.28Z" fill="white"/>
<path d="M0.642822 273.514C100.506 273.033 212.53 273.029 312.394 273.514C212.53 273.999 100.506 273.995 0.642822 273.514Z" fill="#263238"/>
<path d="M279.347 248.588H167.726V273.252H279.347V248.588Z" fill="#FFC727"/>
<g opacity="0.1">
<path d="M172.326 250.848C172.862 257.398 172.862 264.031 172.326 270.582C171.789 264.03 171.79 257.398 172.326 250.848Z" fill="black"/>
<path d="M180.638 250.848C181.174 257.398 181.174 264.031 180.638 270.582C180.102 264.03 180.102 257.398 180.638 250.848Z" fill="black"/>
<path d="M184.7 250.848C185.236 257.398 185.236 264.031 184.7 270.582C184.164 264.03 184.164 257.398 184.7 250.848Z" fill="black"/>
<path d="M206.992 250.848C207.528 257.398 207.528 264.031 206.992 270.582C206.457 264.03 206.457 257.398 206.992 250.848Z" fill="black"/>
<path d="M213.025 250.848C213.56 257.398 213.56 264.031 213.025 270.582C212.488 264.03 212.489 257.398 213.025 250.848Z" fill="black"/>
<path d="M237.961 250.848C238.497 257.398 238.497 264.031 237.961 270.582C237.426 264.03 237.426 257.398 237.961 250.848Z" fill="black"/>
<path d="M243.723 250.848C244.259 257.398 244.259 264.031 243.723 270.582C243.187 264.03 243.187 257.398 243.723 250.848Z" fill="black"/>
<path d="M254.303 250.848C254.839 257.398 254.839 264.031 254.303 270.582C253.767 264.03 253.767 257.398 254.303 250.848Z" fill="black"/>
<path d="M233.143 250.848C233.679 257.398 233.679 264.031 233.143 270.582C232.607 264.03 232.607 257.398 233.143 250.848Z" fill="black"/>
<path d="M192.068 250.848C192.604 257.398 192.604 264.031 192.068 270.582C191.532 264.03 191.532 257.398 192.068 250.848Z" fill="black"/>
<path d="M220.959 250.848C221.494 257.398 221.494 264.031 220.959 270.582C220.423 264.03 220.423 257.398 220.959 250.848Z" fill="black"/>
<path d="M225.115 250.848C225.651 257.398 225.651 264.031 225.115 270.582C224.578 264.03 224.579 257.398 225.115 250.848Z" fill="black"/>
<path d="M268.093 250.848C268.629 257.398 268.629 264.031 268.093 270.582C267.558 264.03 267.558 257.398 268.093 250.848Z" fill="black"/>
<path d="M274.328 250.848C274.864 257.398 274.864 264.031 274.328 270.582C273.792 264.03 273.792 257.398 274.328 250.848Z" fill="black"/>
<path d="M259.214 250.848C259.75 257.398 259.75 264.031 259.214 270.582C258.678 264.03 258.679 257.398 259.214 250.848Z" fill="black"/>
<path d="M202.175 250.848C202.711 257.398 202.711 264.031 202.175 270.582C201.639 264.03 201.639 257.398 202.175 250.848Z" fill="black"/>
</g>
<path opacity="0.1" d="M279.34 248.59V253.83L167.723 257.351V248.59H279.34Z" fill="black"/>
<path d="M283.949 223.925H172.328V248.589H283.949V223.925Z" fill="#FFC727"/>
<g opacity="0.1">
<path d="M278.93 245.918C278.394 239.367 278.394 232.734 278.93 226.184C279.467 232.736 279.466 239.367 278.93 245.918Z" fill="black"/>
<path d="M270.618 245.918C270.082 239.367 270.082 232.734 270.618 226.184C271.154 232.736 271.154 239.367 270.618 245.918Z" fill="black"/>
<path d="M266.556 245.918C266.02 239.367 266.02 232.734 266.556 226.184C267.093 232.736 267.092 239.367 266.556 245.918Z" fill="black"/>
<path d="M244.264 245.918C243.728 239.367 243.728 232.734 244.264 226.184C244.8 232.736 244.8 239.367 244.264 245.918Z" fill="black"/>
<path d="M238.232 245.918C237.697 239.367 237.697 232.734 238.232 226.184C238.768 232.736 238.768 239.367 238.232 245.918Z" fill="black"/>
<path d="M213.295 245.918C212.759 239.367 212.759 232.734 213.295 226.184C213.831 232.736 213.831 239.367 213.295 245.918Z" fill="black"/>
<path d="M207.533 245.918C206.997 239.367 206.997 232.734 207.533 226.184C208.069 232.736 208.069 239.367 207.533 245.918Z" fill="black"/>
<path d="M196.954 245.918C196.418 239.367 196.418 232.734 196.954 226.184C197.49 232.736 197.49 239.367 196.954 245.918Z" fill="black"/>
<path d="M218.113 245.918C217.577 239.367 217.577 232.734 218.113 226.184C218.649 232.736 218.648 239.367 218.113 245.918Z" fill="black"/>
<path d="M259.188 245.918C258.652 239.367 258.652 232.734 259.188 226.184C259.724 232.736 259.724 239.367 259.188 245.918Z" fill="black"/>
<path d="M230.298 245.918C229.762 239.367 229.762 232.734 230.298 226.184C230.834 232.736 230.834 239.367 230.298 245.918Z" fill="black"/>
<path d="M226.141 245.918C225.605 239.367 225.605 232.734 226.141 226.184C226.678 232.736 226.677 239.367 226.141 245.918Z" fill="black"/>
<path d="M183.163 245.918C182.627 239.367 182.627 232.734 183.163 226.184C183.698 232.736 183.698 239.367 183.163 245.918Z" fill="black"/>
<path d="M176.928 245.918C176.392 239.367 176.392 232.734 176.928 226.184C177.464 232.736 177.464 239.367 176.928 245.918Z" fill="black"/>
<path d="M192.041 245.918C191.505 239.367 191.505 232.734 192.041 226.184C192.578 232.736 192.577 239.367 192.041 245.918Z" fill="black"/>
<path d="M249.081 245.918C248.545 239.367 248.545 232.734 249.081 226.184C249.617 232.736 249.617 239.367 249.081 245.918Z" fill="black"/>
</g>
<path opacity="0.1" d="M283.942 223.927V229.167L172.326 232.688V223.927H283.942Z" fill="black"/>
<path d="M278.633 199.463H167.012V224.127H278.633V199.463Z" fill="#FFC727"/>
<g opacity="0.1">
<path d="M171.611 201.722C172.147 208.273 172.147 214.906 171.611 221.456C171.075 214.905 171.075 208.274 171.611 201.722Z" fill="black"/>
<path d="M179.924 201.722C180.46 208.273 180.46 214.906 179.924 221.456C179.388 214.905 179.388 208.274 179.924 201.722Z" fill="black"/>
<path d="M183.985 201.722C184.521 208.273 184.521 214.906 183.985 221.456C183.45 214.905 183.45 208.274 183.985 201.722Z" fill="black"/>
<path d="M206.278 201.722C206.813 208.273 206.813 214.906 206.278 221.456C205.742 214.905 205.743 208.274 206.278 201.722Z" fill="black"/>
<path d="M212.31 201.722C212.846 208.273 212.846 214.906 212.31 221.456C211.773 214.905 211.774 208.274 212.31 201.722Z" fill="black"/>
<path d="M237.247 201.722C237.782 208.273 237.782 214.906 237.247 221.456C236.711 214.905 236.711 208.274 237.247 201.722Z" fill="black"/>
<path d="M243.009 201.722C243.545 208.273 243.545 214.906 243.009 221.456C242.473 214.905 242.473 208.274 243.009 201.722Z" fill="black"/>
<path d="M253.588 201.722C254.124 208.273 254.124 214.906 253.588 221.456C253.052 214.905 253.052 208.274 253.588 201.722Z" fill="black"/>
<path d="M232.429 201.722C232.965 208.273 232.965 214.906 232.429 221.456C231.893 214.905 231.893 208.274 232.429 201.722Z" fill="black"/>
<path d="M191.353 201.722C191.889 208.273 191.889 214.906 191.353 221.456C190.817 214.905 190.818 208.274 191.353 201.722Z" fill="black"/>
<path d="M220.244 201.722C220.779 208.273 220.779 214.906 220.244 221.456C219.708 214.905 219.709 208.274 220.244 201.722Z" fill="black"/>
<path d="M224.4 201.722C224.936 208.273 224.936 214.906 224.4 221.456C223.864 214.905 223.864 208.274 224.4 201.722Z" fill="black"/>
<path d="M267.379 201.722C267.915 208.273 267.915 214.906 267.379 221.456C266.844 214.905 266.844 208.274 267.379 201.722Z" fill="black"/>
<path d="M273.613 201.722C274.149 208.273 274.149 214.906 273.613 221.456C273.077 214.905 273.077 208.274 273.613 201.722Z" fill="black"/>
<path d="M258.5 201.722C259.036 208.273 259.036 214.906 258.5 221.456C257.964 214.905 257.964 208.274 258.5 201.722Z" fill="black"/>
<path d="M201.46 201.722C201.996 208.273 201.996 214.906 201.46 221.456C200.925 214.905 200.925 208.274 201.46 201.722Z" fill="black"/>
</g>
<path opacity="0.1" d="M278.625 199.464V204.705L167.009 208.226V199.464H278.625Z" fill="black"/>
<path d="M287.897 159.335C294.763 131.129 277.463 102.697 249.256 95.8314C221.05 88.9656 192.618 106.266 185.752 134.472C178.887 162.678 196.187 191.11 224.393 197.976C252.599 204.842 281.031 187.542 287.897 159.335Z" fill="#FFC727"/>
<path opacity="0.1" d="M208.154 118.219C219.454 106.68 237.58 102.829 252.641 108.732C277.504 118.082 287.393 148.658 272.615 170.809C261.608 187.763 239.013 194.391 220.636 185.996C193.966 174.159 187.535 138.651 208.154 118.219ZM208.154 118.219C196.715 129.386 193.356 147.653 200.057 162.131C211.227 187.15 244.55 193.155 263.74 173.806C283.105 154.619 277.103 121.279 252.067 110.115C237.588 103.419 219.321 106.78 208.154 118.219Z" fill="black"/>
<g opacity="0.1">
<path d="M236.135 160.853C236.679 162.433 235.808 164.12 234.229 164.665C234.011 164.719 233.575 164.828 233.03 164.828C233.03 164.828 233.03 164.828 232.976 164.828C232.432 164.828 231.615 164.719 230.852 164.23C230.144 163.794 229.546 163.086 229.11 162.323C228.348 160.744 227.966 158.784 227.966 155.789C227.912 154.755 227.695 154.047 227.313 153.448C226.986 152.849 226.332 152.305 225.679 151.869C224.535 151.107 223.12 150.671 222.63 150.562H216.204V162.378C216.204 164.012 214.843 165.373 213.155 165.373C211.467 165.373 210.161 164.012 210.161 162.378V130.251C210.161 128.564 211.467 127.256 213.155 127.256C213.155 127.256 213.155 127.256 213.21 127.256H222.903C229.382 127.256 234.556 132.484 234.556 138.963C234.556 142.557 232.922 145.716 230.308 147.894C231.016 148.438 231.669 149.092 232.214 149.908C233.303 151.488 234.011 153.502 234.011 155.789C233.957 157.423 234.12 158.458 234.229 159.002C235.1 159.274 235.808 159.928 236.135 160.853ZM228.511 138.963C228.511 135.805 226.006 133.3 222.903 133.3H216.204V144.517H222.903C226.006 144.518 228.511 142.013 228.511 138.963Z" fill="black"/>
<path d="M251.267 126.199C252.414 126.199 253.323 127.108 253.323 128.255V129.306C256.142 129.641 258.533 130.549 260.732 131.935C261.497 132.366 262.166 133.082 262.166 134.229C262.166 135.711 260.971 136.858 259.489 136.858C259.011 136.858 258.533 136.715 258.055 136.428C256.382 135.424 254.756 134.707 253.132 134.325V143.502C260.398 145.319 263.505 148.235 263.505 153.35C263.505 158.608 259.394 162.097 253.323 162.671V165.539C253.323 166.686 252.415 167.594 251.268 167.594C250.121 167.594 249.165 166.686 249.165 165.539V162.575C245.579 162.192 242.282 160.902 239.365 158.847C238.553 158.321 238.075 157.556 238.075 156.552C238.075 155.071 239.222 153.923 240.704 153.923C241.278 153.923 241.851 154.114 242.282 154.449C244.528 156.074 246.727 157.174 249.356 157.652V148.235C242.378 146.418 239.127 143.789 239.127 138.387C239.127 133.272 243.19 129.735 249.165 129.257V128.253C249.164 127.108 250.12 126.199 251.267 126.199ZM249.355 142.5V134.039C246.295 134.326 244.766 135.951 244.766 138.054C244.766 140.062 245.674 141.305 249.355 142.5ZM253.131 149.144V157.843C256.19 157.509 257.863 155.979 257.863 153.685C257.864 151.582 256.812 150.291 253.131 149.144Z" fill="black"/>
</g>
<path d="M269.896 127.51L277.059 128.834L278.66 136.384L280.261 128.834L287.423 127.506L280.291 125.763L278.66 118.632L277.028 125.763L269.896 127.51Z" fill="white"/>
<path d="M197.068 156.458L201.071 157.198L201.966 161.418L202.861 157.198L206.864 156.456L202.877 155.482L201.966 151.496L201.054 155.482L197.068 156.458Z" fill="white"/>
<path d="M258.57 258.712L262.574 259.452L263.468 263.672L264.363 259.452L268.366 258.709L264.38 257.735L263.468 253.749L262.556 257.735L258.57 258.712Z" fill="white"/>
<path d="M266.16 112.101C267.653 112.101 267.656 114.422 266.16 114.422C264.667 114.422 264.664 112.101 266.16 112.101Z" fill="white"/>
<path d="M273.482 254.518C274.539 254.518 274.54 256.16 273.482 256.16C272.426 256.16 272.424 254.518 273.482 254.518Z" fill="white"/>
<path d="M227.765 113.373C228.821 113.373 228.823 115.015 227.765 115.015C226.708 115.015 226.707 113.373 227.765 113.373Z" fill="white"/>
<path opacity="0.1" d="M167.729 273.255V257.352H167.721V248.591H172.325V224.124H167.014V208.229H167.006V199.468H167.014V199.46H194.364V199.468L195.237 207.341L197.075 223.927L197.099 224.124L197.955 231.879L199.809 248.591L200.666 256.315L202.174 269.939L202.544 273.255H167.729Z" fill="black"/>
<path d="M182.45 281.975H70.8293V306.639H182.45V281.975Z" fill="#FFC727"/>
<g opacity="0.1">
<path d="M75.4292 284.235C75.9651 290.785 75.9651 297.418 75.4292 303.969C74.8934 297.417 74.8934 290.786 75.4292 284.235Z" fill="black"/>
<path d="M83.7412 284.235C84.2771 290.785 84.2771 297.418 83.7412 303.969C83.2054 297.417 83.2054 290.786 83.7412 284.235Z" fill="black"/>
<path d="M87.8035 284.235C88.3394 290.785 88.3394 297.418 87.8035 303.969C87.2676 297.417 87.2676 290.786 87.8035 284.235Z" fill="black"/>
<path d="M110.096 284.235C110.632 290.785 110.632 297.418 110.096 303.969C109.56 297.417 109.56 290.786 110.096 284.235Z" fill="black"/>
<path d="M116.127 284.235C116.663 290.785 116.663 297.418 116.127 303.969C115.591 297.417 115.591 290.786 116.127 284.235Z" fill="black"/>
<path d="M141.065 284.235C141.601 290.785 141.601 297.418 141.065 303.969C140.529 297.417 140.529 290.786 141.065 284.235Z" fill="black"/>
<path d="M146.827 284.235C147.363 290.785 147.363 297.418 146.827 303.969C146.29 297.417 146.291 290.786 146.827 284.235Z" fill="black"/>
<path d="M157.406 284.235C157.942 290.785 157.942 297.418 157.406 303.969C156.87 297.417 156.871 290.786 157.406 284.235Z" fill="black"/>
<path d="M136.247 284.235C136.782 290.785 136.782 297.418 136.247 303.969C135.711 297.417 135.711 290.786 136.247 284.235Z" fill="black"/>
<path d="M95.1709 284.235C95.7068 290.785 95.7068 297.418 95.1709 303.969C94.6351 297.417 94.6351 290.786 95.1709 284.235Z" fill="black"/>
<path d="M124.062 284.235C124.598 290.785 124.598 297.418 124.062 303.969C123.526 297.417 123.526 290.786 124.062 284.235Z" fill="black"/>
<path d="M128.218 284.235C128.754 290.785 128.754 297.418 128.218 303.969C127.681 297.417 127.682 290.786 128.218 284.235Z" fill="black"/>
<path d="M171.198 284.235C171.733 290.785 171.733 297.418 171.198 303.969C170.661 297.417 170.662 290.786 171.198 284.235Z" fill="black"/>
<path d="M177.431 284.235C177.967 290.785 177.967 297.418 177.431 303.969C176.896 297.417 176.896 290.786 177.431 284.235Z" fill="black"/>
<path d="M162.318 284.235C162.854 290.785 162.854 297.418 162.318 303.969C161.782 297.417 161.782 290.786 162.318 284.235Z" fill="black"/>
<path d="M105.279 284.235C105.814 290.785 105.814 297.418 105.279 303.969C104.743 297.417 104.743 290.786 105.279 284.235Z" fill="black"/>
</g>
<path opacity="0.1" d="M182.443 281.977V287.217L70.8267 290.738V281.977H182.443Z" fill="black"/>
<path d="M174.816 257.312H63.1953V281.977H174.816V257.312Z" fill="#FFC727"/>
<g opacity="0.1">
<path d="M67.7954 259.572C68.3313 266.123 68.3313 272.756 67.7954 279.306C67.2596 272.755 67.2596 266.123 67.7954 259.572Z" fill="black"/>
<path d="M76.1074 259.572C76.6433 266.123 76.6433 272.756 76.1074 279.306C75.5716 272.755 75.5723 266.123 76.1074 259.572Z" fill="black"/>
<path d="M80.1698 259.572C80.7056 266.123 80.7056 272.756 80.1698 279.306C79.6331 272.755 79.6339 266.123 80.1698 259.572Z" fill="black"/>
<path d="M102.462 259.572C102.998 266.123 102.998 272.756 102.462 279.306C101.926 272.755 101.926 266.123 102.462 259.572Z" fill="black"/>
<path d="M108.494 259.572C109.03 266.123 109.03 272.756 108.494 279.306C107.958 272.755 107.958 266.123 108.494 259.572Z" fill="black"/>
<path d="M133.431 259.572C133.967 266.123 133.967 272.756 133.431 279.306C132.894 272.755 132.895 266.123 133.431 259.572Z" fill="black"/>
<path d="M139.193 259.572C139.728 266.123 139.728 272.756 139.193 279.306C138.657 272.755 138.658 266.123 139.193 259.572Z" fill="black"/>
<path d="M149.772 259.572C150.308 266.123 150.308 272.756 149.772 279.306C149.236 272.755 149.236 266.123 149.772 259.572Z" fill="black"/>
<path d="M128.614 259.572C129.149 266.123 129.149 272.756 128.614 279.306C128.077 272.755 128.078 266.123 128.614 259.572Z" fill="black"/>
<path d="M87.5374 259.572C88.0732 266.123 88.0732 272.756 87.5374 279.306C87.0015 272.755 87.0015 266.123 87.5374 259.572Z" fill="black"/>
<path d="M116.428 259.572C116.964 266.123 116.964 272.756 116.428 279.306C115.892 272.755 115.892 266.123 116.428 259.572Z" fill="black"/>
<path d="M120.585 259.572C121.12 266.123 121.12 272.756 120.585 279.306C120.049 272.755 120.049 266.123 120.585 259.572Z" fill="black"/>
<path d="M163.564 259.572C164.1 266.123 164.1 272.756 163.564 279.306C163.027 272.755 163.028 266.123 163.564 259.572Z" fill="black"/>
<path d="M169.798 259.572C170.334 266.123 170.334 272.756 169.798 279.306C169.262 272.755 169.262 266.123 169.798 259.572Z" fill="black"/>
<path d="M154.684 259.572C155.22 266.123 155.22 272.756 154.684 279.306C154.148 272.755 154.149 266.123 154.684 259.572Z" fill="black"/>
<path d="M97.6449 259.572C98.1807 266.123 98.1807 272.756 97.6449 279.306C97.1082 272.755 97.109 266.123 97.6449 259.572Z" fill="black"/>
</g>
<path opacity="0.1" d="M174.809 257.314V262.555L63.1926 266.076V257.314H174.809Z" fill="black"/>
<path d="M192.06 208.186H80.439V232.85H192.06V208.186Z" fill="#FFC727"/>
<g opacity="0.1">
<path d="M85.0396 210.446C85.5754 216.997 85.5754 223.63 85.0396 230.18C84.5037 223.629 84.5037 216.997 85.0396 210.446Z" fill="black"/>
<path d="M93.3516 210.446C93.8875 216.997 93.8875 223.63 93.3516 230.18C92.8157 223.629 92.8157 216.997 93.3516 210.446Z" fill="black"/>
<path d="M97.4139 210.446C97.9497 216.997 97.9497 223.63 97.4139 230.18C96.878 223.629 96.878 216.997 97.4139 210.446Z" fill="black"/>
<path d="M119.706 210.446C120.242 216.997 120.242 223.63 119.706 230.18C119.17 223.629 119.17 216.997 119.706 210.446Z" fill="black"/>
<path d="M125.738 210.446C126.274 216.997 126.274 223.63 125.738 230.18C125.201 223.629 125.202 216.997 125.738 210.446Z" fill="black"/>
<path d="M150.675 210.446C151.211 216.997 151.211 223.63 150.675 230.18C150.139 223.629 150.139 216.997 150.675 210.446Z" fill="black"/>
<path d="M156.437 210.446C156.972 216.997 156.972 223.63 156.437 230.18C155.901 223.629 155.901 216.997 156.437 210.446Z" fill="black"/>
<path d="M167.016 210.446C167.552 216.997 167.552 223.63 167.016 230.18C166.481 223.629 166.481 216.997 167.016 210.446Z" fill="black"/>
<path d="M145.857 210.446C146.393 216.997 146.393 223.63 145.857 230.18C145.321 223.629 145.321 216.997 145.857 210.446Z" fill="black"/>
<path d="M104.782 210.446C105.318 216.997 105.318 223.63 104.782 230.18C104.246 223.629 104.246 216.997 104.782 210.446Z" fill="black"/>
<path d="M133.672 210.446C134.208 216.997 134.208 223.63 133.672 230.18C133.136 223.629 133.136 216.997 133.672 210.446Z" fill="black"/>
<path d="M137.828 210.446C138.364 216.997 138.364 223.63 137.828 230.18C137.292 223.629 137.293 216.997 137.828 210.446Z" fill="black"/>
<path d="M180.807 210.446C181.343 216.997 181.343 223.63 180.807 230.18C180.271 223.629 180.271 216.997 180.807 210.446Z" fill="black"/>
<path d="M187.042 210.446C187.578 216.997 187.578 223.63 187.042 230.18C186.506 223.629 186.506 216.997 187.042 210.446Z" fill="black"/>
<path d="M171.929 210.446C172.464 216.997 172.464 223.63 171.929 230.18C171.392 223.629 171.393 216.997 171.929 210.446Z" fill="black"/>
<path d="M114.889 210.446C115.425 216.997 115.425 223.63 114.889 230.18C114.353 223.629 114.353 216.997 114.889 210.446Z" fill="black"/>
</g>
<path opacity="0.1" d="M192.053 208.188V213.428L80.4368 216.949V208.188H192.053Z" fill="black"/>
<path d="M189.243 183.521H77.6221V208.185H189.243V183.521Z" fill="#FFC727"/>
<g opacity="0.1">
<path d="M184.224 205.515C183.688 198.965 183.688 192.332 184.224 185.781C184.76 192.332 184.76 198.965 184.224 205.515Z" fill="black"/>
<path d="M175.912 205.515C175.376 198.965 175.376 192.332 175.912 185.781C176.448 192.332 176.447 198.965 175.912 205.515Z" fill="black"/>
<path d="M171.85 205.515C171.314 198.965 171.314 192.332 171.85 185.781C172.386 192.332 172.386 198.965 171.85 205.515Z" fill="black"/>
<path d="M149.557 205.515C149.022 198.965 149.022 192.332 149.557 185.781C150.093 192.332 150.093 198.965 149.557 205.515Z" fill="black"/>
<path d="M143.526 205.515C142.99 198.965 142.99 192.332 143.526 185.781C144.062 192.332 144.062 198.965 143.526 205.515Z" fill="black"/>
<path d="M118.589 205.515C118.053 198.965 118.053 192.332 118.589 185.781C119.125 192.332 119.125 198.965 118.589 205.515Z" fill="black"/>
<path d="M112.826 205.515C112.29 198.965 112.29 192.332 112.826 185.781C113.362 192.332 113.362 198.965 112.826 205.515Z" fill="black"/>
<path d="M102.247 205.515C101.711 198.965 101.711 192.332 102.247 185.781C102.783 192.332 102.782 198.965 102.247 205.515Z" fill="black"/>
<path d="M123.406 205.515C122.87 198.965 122.87 192.332 123.406 185.781C123.942 192.332 123.942 198.965 123.406 205.515Z" fill="black"/>
<path d="M164.482 205.515C163.946 198.965 163.946 192.332 164.482 185.781C165.018 192.332 165.018 198.965 164.482 205.515Z" fill="black"/>
<path d="M135.591 205.515C135.055 198.965 135.055 192.332 135.591 185.781C136.127 192.332 136.126 198.965 135.591 205.515Z" fill="black"/>
<path d="M131.435 205.515C130.899 198.965 130.899 192.332 131.435 185.781C131.971 192.332 131.971 198.965 131.435 205.515Z" fill="black"/>
<path d="M88.4556 205.515C87.9197 198.965 87.9197 192.332 88.4556 185.781C88.9915 192.332 88.9915 198.965 88.4556 205.515Z" fill="black"/>
<path d="M82.221 205.515C81.6851 198.965 81.6851 192.332 82.221 185.781C82.7576 192.332 82.7568 198.965 82.221 205.515Z" fill="black"/>
<path d="M97.335 205.515C96.7991 198.965 96.7991 192.332 97.335 185.781C97.8709 192.332 97.8709 198.965 97.335 205.515Z" fill="black"/>
<path d="M154.375 205.515C153.839 198.965 153.839 192.332 154.375 185.781C154.911 192.332 154.911 198.965 154.375 205.515Z" fill="black"/>
</g>
<path opacity="0.1" d="M189.235 183.524V188.764L77.6191 192.285V183.524H189.235Z" fill="black"/>
<path d="M176.927 155.425L65.3843 159.544L66.2944 184.191L177.837 180.072L176.927 155.425Z" fill="#FFC727"/>
<g opacity="0.1">
<path d="M70.0749 161.631C70.8519 168.157 71.0979 174.786 70.804 181.351C70.0262 174.824 69.781 168.197 70.0749 161.631Z" fill="black"/>
<path d="M78.3807 161.324C79.1578 167.85 79.4037 174.478 79.1098 181.044C78.332 174.517 78.0876 167.89 78.3807 161.324Z" fill="black"/>
<path d="M82.4406 161.174C83.2177 167.7 83.4628 174.328 83.1697 180.894C82.3919 174.367 82.1467 167.74 82.4406 161.174Z" fill="black"/>
<path d="M104.717 160.35C105.494 166.877 105.74 173.505 105.446 180.07C104.668 173.543 104.424 166.916 104.717 160.35Z" fill="black"/>
<path d="M110.745 160.127C111.522 166.653 111.768 173.282 111.474 179.847C110.696 173.321 110.451 166.693 110.745 160.127Z" fill="black"/>
<path d="M135.665 159.205C136.443 165.732 136.688 172.36 136.395 178.926C135.617 172.399 135.372 165.772 135.665 159.205Z" fill="black"/>
<path d="M141.423 158.993C142.2 165.52 142.446 172.148 142.152 178.713C141.374 172.186 141.13 165.559 141.423 158.993Z" fill="black"/>
<path d="M151.996 158.602C152.773 165.128 153.018 171.757 152.725 178.322C151.947 171.796 151.702 165.168 151.996 158.602Z" fill="black"/>
<path d="M130.851 159.384C131.629 165.91 131.874 172.538 131.581 179.105C130.803 172.578 130.558 165.95 130.851 159.384Z" fill="black"/>
<path d="M89.8034 160.901C90.5805 167.427 90.8264 174.056 90.5325 180.622C89.7547 174.095 89.5095 167.467 89.8034 160.901Z" fill="black"/>
<path d="M118.674 159.834C119.451 166.36 119.697 172.989 119.403 179.554C118.626 173.028 118.381 166.4 118.674 159.834Z" fill="black"/>
<path d="M122.828 159.68C123.605 166.206 123.85 172.835 123.557 179.401C122.779 172.874 122.534 166.246 122.828 159.68Z" fill="black"/>
<path d="M165.777 158.093C166.554 164.619 166.8 171.247 166.506 177.813C165.728 171.286 165.484 164.658 165.777 158.093Z" fill="black"/>
<path d="M172.007 157.863C172.784 164.389 173.03 171.017 172.736 177.583C171.958 171.056 171.714 164.428 172.007 157.863Z" fill="black"/>
<path d="M156.904 158.421C157.681 164.947 157.926 171.575 157.633 178.141C156.855 171.614 156.611 164.987 156.904 158.421Z" fill="black"/>
<path d="M99.903 160.528C100.68 167.054 100.926 173.682 100.632 180.248C99.8551 173.721 99.6099 167.094 99.903 160.528Z" fill="black"/>
</g>
<path opacity="0.1" d="M176.931 155.421L177.125 160.658L65.7145 168.299L65.3916 159.544L176.931 155.421Z" fill="black"/>
<path d="M182.452 232.85H70.8308V257.514H182.452V232.85Z" fill="#FFC727"/>
<g opacity="0.1">
<path d="M177.433 254.844C176.897 248.293 176.897 241.66 177.433 235.11C177.969 241.661 177.969 248.293 177.433 254.844Z" fill="black"/>
<path d="M169.12 254.844C168.584 248.293 168.584 241.66 169.12 235.11C169.656 241.661 169.656 248.293 169.12 254.844Z" fill="black"/>
<path d="M165.058 254.844C164.522 248.293 164.522 241.66 165.058 235.11C165.594 241.661 165.594 248.293 165.058 254.844Z" fill="black"/>
<path d="M142.766 254.844C142.23 248.293 142.23 241.66 142.766 235.11C143.302 241.661 143.302 248.293 142.766 254.844Z" fill="black"/>
<path d="M136.735 254.844C136.199 248.293 136.199 241.66 136.735 235.11C137.271 241.661 137.27 248.293 136.735 254.844Z" fill="black"/>
<path d="M111.797 254.844C111.261 248.293 111.261 241.66 111.797 235.11C112.333 241.661 112.333 248.293 111.797 254.844Z" fill="black"/>
<path d="M106.035 254.844C105.499 248.293 105.499 241.66 106.035 235.11C106.571 241.661 106.571 248.293 106.035 254.844Z" fill="black"/>
<path d="M95.4554 254.844C94.9195 248.293 94.9195 241.66 95.4554 235.11C95.9912 241.661 95.9912 248.293 95.4554 254.844Z" fill="black"/>
<path d="M116.615 254.844C116.079 248.293 116.079 241.66 116.615 235.11C117.151 241.661 117.151 248.293 116.615 254.844Z" fill="black"/>
<path d="M157.69 254.844C157.154 248.293 157.154 241.66 157.69 235.11C158.226 241.661 158.226 248.293 157.69 254.844Z" fill="black"/>
<path d="M128.8 254.844C128.264 248.293 128.264 241.66 128.8 235.11C129.336 241.661 129.335 248.293 128.8 254.844Z" fill="black"/>
<path d="M124.644 254.844C124.108 248.293 124.108 241.66 124.644 235.11C125.18 241.661 125.179 248.293 124.644 254.844Z" fill="black"/>
<path d="M81.6646 254.844C81.1287 248.293 81.1287 241.66 81.6646 235.11C82.2004 241.661 82.2004 248.293 81.6646 254.844Z" fill="black"/>
<path d="M75.43 254.844C74.8941 248.293 74.8941 241.66 75.43 235.11C75.9658 241.661 75.9658 248.293 75.43 254.844Z" fill="black"/>
<path d="M90.544 254.844C90.0081 248.293 90.0081 241.66 90.544 235.11C91.0798 241.661 91.0798 248.293 90.544 254.844Z" fill="black"/>
<path d="M147.584 254.844C147.048 248.293 147.048 241.66 147.584 235.11C148.12 241.661 148.119 248.293 147.584 254.844Z" fill="black"/>
</g>
<path opacity="0.1" d="M182.444 232.851V238.092L70.8281 241.614V232.851H182.444Z" fill="black"/>
<path d="M110.998 274.249C94.1792 295.677 63.365 309.522 42.1727 305.167C20.9852 300.814 17.44 279.907 34.2535 258.477C51.078 237.039 81.893 223.194 103.085 227.549C124.277 231.905 127.822 252.812 110.998 274.249Z" fill="#FFC727"/>
<g opacity="0.1">
<path d="M64.0352 276.559C63.5127 277.808 61.8988 278.924 60.4342 279.087C60.2449 279.095 59.863 279.111 59.4647 279.029C59.0262 278.939 58.4935 278.735 58.2225 278.259C57.9592 277.831 57.9294 277.219 58.0527 276.592C58.411 275.313 59.2706 273.807 61.0062 271.596C61.5641 270.826 61.8187 270.269 61.8823 269.77C61.9931 269.278 61.8336 268.777 61.6073 268.357C61.2145 267.624 60.4327 267.09 60.1349 266.938L55.4442 265.974L48.599 274.697C47.653 275.902 45.8726 276.704 44.6406 276.451C43.4086 276.198 43.2436 274.996 44.1896 273.791L62.804 250.07C63.7822 248.824 65.4935 248.055 66.7255 248.309L73.8401 249.771C78.5709 250.743 79.315 255.379 75.56 260.164C73.4795 262.815 70.4568 264.903 67.2857 266.119C67.4884 266.629 67.5866 267.207 67.5119 267.892C67.3909 269.22 66.7412 270.816 65.418 272.502C64.432 273.7 63.948 274.489 63.7122 274.909C64.1923 275.239 64.3275 275.829 64.0352 276.559ZM63.838 262.516C66.1008 262.981 69.3835 261.509 71.1506 259.257C72.9813 256.924 72.601 254.698 70.3374 254.233L65.4455 253.227L58.9453 261.51L63.838 262.516Z" fill="black"/>
</g>
<g opacity="0.1">
<path d="M86.4921 266.3C90.7436 268.732 91.3219 271.35 88.359 275.126C85.312 279.008 80.2912 280.969 75.529 280.48L73.8665 282.599C73.2017 283.446 72.0114 283.978 71.1738 283.806C70.3362 283.634 70.1634 282.822 70.8281 281.975L72.5457 279.786C70.1485 278.967 68.4914 277.518 67.5532 275.565C67.2617 275.054 67.3584 274.417 67.939 273.678C68.7978 272.583 70.3001 271.908 71.382 272.131C71.7985 272.216 72.1088 272.443 72.229 272.755C72.9267 274.29 73.8932 275.433 75.5377 276.179L80.9929 269.227C76.9527 266.838 76.101 264.413 79.2321 260.423C82.195 256.647 87.2087 254.646 91.8491 255.187L92.4297 254.448C93.0945 253.601 94.321 253.072 95.1577 253.244C95.9953 253.416 96.132 254.226 95.4681 255.072L94.8584 255.848C96.7252 256.515 97.9415 257.547 98.7422 258.901C99.0549 259.33 99.1232 259.962 98.4585 260.809C97.5997 261.904 96.0652 262.572 94.9825 262.349C94.6313 262.277 94.3681 262.099 94.1827 261.816C93.5447 260.822 92.7747 260.049 91.8075 259.524L86.4921 266.3ZM78.1847 276.887C80.6102 277.102 82.7191 276.221 84.0485 274.528C85.2672 272.974 85.2483 271.863 83.2251 270.464L78.1847 276.887ZM84.3157 264.994L89.217 258.748C86.8213 258.501 84.7627 259.469 83.5433 261.022C82.3805 262.505 82.3223 263.558 84.3157 264.994Z" fill="black"/>
</g>
<g opacity="0.1">
<path d="M106.278 240.558C119.016 251.188 108.515 275.249 84.8975 289.384C72.268 297.068 58.397 300.071 48.3335 298.003C44.1669 297.146 40.654 295.423 38.1491 292.801C26.0711 280.596 40.1315 255.144 64.9671 242.483C51.5636 249.381 40.188 261.287 36.9556 272.091C33.163 284.144 39.099 292.364 49.8814 294.579C57.1233 296.068 66.5495 294.848 76.6837 290.264C101.935 279.003 116.869 253.492 105.06 241.493C102.754 239.042 99.4277 237.403 95.4552 236.587C88.3154 235.12 79.0856 236.303 69.9187 240.179C79.6584 236.05 89.4971 234.761 97.106 236.324C100.764 237.075 103.907 238.486 106.278 240.558Z" fill="black"/>
</g>
<path d="M118.558 237.238L126.053 249.073C131.804 258.156 129.541 272.005 118.493 286.083C101.675 307.515 70.8585 321.36 49.6678 317.004C42.3936 315.51 37.1993 312.065 34.1931 307.318L26.699 295.483C29.7051 300.229 34.8995 303.675 42.1736 305.169C63.3651 309.524 94.1808 295.679 110.999 274.248C122.047 260.17 124.31 246.32 118.558 237.238Z" fill="#FFC727"/>
<g opacity="0.1">
<path d="M118.558 237.238L126.053 249.073C131.804 258.156 129.541 272.005 118.493 286.083C101.675 307.515 70.8585 321.36 49.6678 317.004C42.3936 315.51 37.1993 312.065 34.1931 307.318L26.699 295.483C29.7051 300.229 34.8995 303.675 42.1736 305.169C63.3651 309.524 94.1808 295.679 110.999 274.248C122.047 260.17 124.31 246.32 118.558 237.238Z" fill="black"/>
</g>
<path d="M75.0645 236.116L82.227 237.441L83.8275 244.991L85.428 237.441L92.5906 236.112L85.4587 234.369L83.8275 227.238L82.1964 234.369L75.0645 236.116Z" fill="white"/>
<path d="M88.6729 255.098L92.6761 255.837L93.5702 260.057L94.4651 255.837L98.4683 255.096L94.4824 254.121L93.5702 250.135L92.6588 254.121L88.6729 255.098Z" fill="white"/>
<path d="M85.1631 261.525C86.2198 261.525 86.2214 263.168 85.1631 263.168C84.1063 263.168 84.1047 261.525 85.1631 261.525Z" fill="white"/>
<path d="M102.674 242.543C103.731 242.543 103.733 244.185 102.674 244.185C101.618 244.185 101.616 242.543 102.674 242.543Z" fill="white"/>
<path d="M136.637 148.316C115.122 158.66 85.5353 157.629 70.5549 146.006C55.5776 134.388 60.8765 116.576 82.3885 106.227C103.911 95.8777 133.498 96.9094 148.478 108.532C163.458 120.156 158.16 137.967 136.637 148.316Z" fill="#FFC727"/>
<g opacity="0.1">
<path d="M98.8131 131.967C97.9189 132.747 96.2186 133 95.0031 132.562C94.8515 132.495 94.5451 132.36 94.263 132.142C93.9527 131.901 93.6132 131.535 93.5841 131.055C93.5425 130.617 93.7562 130.125 94.0956 129.679C94.8719 128.812 96.1307 127.96 98.3511 126.892C99.0873 126.503 99.5037 126.162 99.7457 125.796C100.023 125.451 100.091 124.996 100.077 124.578C100.051 123.85 99.6428 123.127 99.4676 122.893L96.1519 120.321L87.3951 124.532C86.1851 125.114 84.4746 125.056 83.604 124.38C82.7327 123.705 83.0682 122.696 84.2782 122.114L108.092 110.661C109.342 110.059 110.986 110.116 111.857 110.792L116.886 114.694C120.23 117.288 119.022 121.222 114.219 123.532C111.557 124.812 108.372 125.285 105.408 125.014C105.371 125.494 105.225 125.986 104.901 126.496C104.293 127.493 103.164 128.498 101.47 129.312C100.232 129.872 99.5462 130.306 99.1981 130.545C99.4472 130.99 99.3254 131.507 98.8131 131.967ZM104.09 120.848C105.69 122.089 108.84 122.201 111.102 121.113C113.444 119.987 114.005 118.09 112.405 116.848L108.947 114.165L100.632 118.165L104.09 120.848Z" fill="black"/>
</g>
<g opacity="0.1">
<path d="M120.441 132.586C122.843 136.144 122.285 138.426 118.495 140.249C114.597 142.123 109.891 141.723 106.335 139.497L104.209 140.52C103.358 140.928 102.216 140.887 101.624 140.428C101.033 139.969 101.211 139.263 102.061 138.854L104.259 137.797C102.691 136.226 101.947 134.446 101.965 132.547C101.934 132.033 102.256 131.569 102.999 131.212C104.097 130.683 105.54 130.734 106.304 131.328C106.599 131.556 106.755 131.855 106.728 132.146C106.684 133.623 107.002 134.896 108.006 136.118L114.985 132.762C112.732 129.32 113 127.083 117.005 125.157C120.796 123.335 125.512 123.701 128.952 125.921L129.695 125.564C130.545 125.156 131.714 125.214 132.306 125.673C132.897 126.132 132.692 126.822 131.842 127.231L131.063 127.606C132.273 128.853 132.83 130.134 132.937 131.508C133.017 131.967 132.826 132.49 131.976 132.9C130.877 133.429 129.412 133.359 128.647 132.766C128.398 132.574 128.261 132.332 128.224 132.037C128.107 131.009 127.8 130.103 127.243 129.316L120.441 132.586ZM109.813 137.698C111.637 138.805 113.636 138.929 115.337 138.111C116.895 137.362 117.311 136.48 116.261 134.598L109.813 137.698ZM119.235 130.718L125.505 127.702C123.716 126.581 121.723 126.546 120.164 127.295C118.675 128.012 118.223 128.817 119.235 130.718Z" fill="black"/>
</g>
<g opacity="0.1">
<path d="M145.958 119.997C151.863 133.283 134.298 148.143 110.259 150.122C97.3553 151.278 85.2859 148.275 78.1721 142.756C75.2272 140.471 73.1317 137.756 72.1763 134.725C67.3999 120.456 88.3015 105.88 112.729 105.53C99.5199 105.77 85.9695 110.732 79.2485 117.978C71.6035 125.989 73.0924 134.749 80.7139 140.662C85.8328 144.634 93.7174 147.321 103.46 147.637C127.672 148.549 149.284 134.265 144.639 120.262C143.775 117.442 141.792 114.867 138.984 112.688C133.937 108.773 126.221 106.133 117.514 105.635C126.77 106.155 135.005 108.947 140.383 113.119C142.97 115.125 144.895 117.45 145.958 119.997Z" fill="black"/>
</g>
<path d="M156.899 122.136L158.214 134.342C159.224 143.709 152.087 153.724 137.953 160.521C116.437 170.868 86.8498 169.835 71.8702 158.213C66.7285 154.224 63.9761 149.506 63.4481 144.61L62.1328 132.405C62.6608 137.3 65.4132 142.019 70.5549 146.008C85.5345 157.629 115.122 158.663 136.638 148.315C150.772 141.519 157.908 131.504 156.899 122.136Z" fill="#FFC727"/>
<g opacity="0.1">
<path d="M156.899 122.136L158.214 134.342C159.224 143.709 152.087 153.724 137.953 160.521C116.437 170.868 86.8498 169.835 71.8702 158.213C66.7285 154.224 63.9761 149.506 63.4481 144.61L62.1328 132.405C62.6608 137.3 65.4132 142.019 70.5549 146.008C85.5345 157.629 115.122 158.663 136.638 148.315C150.772 141.519 157.908 131.504 156.899 122.136Z" fill="black"/>
</g>
<path d="M159.066 33.9068C183.177 44.9084 199.38 73.8981 195.26 98.652C191.136 123.417 168.25 134.572 144.139 123.57C120.033 112.57 103.828 83.586 107.952 58.821C112.072 34.0671 134.959 22.9123 159.066 33.9068Z" fill="#FFC727"/>
<path d="M113.422 41.0199C106.036 45.9463 100.741 54.1107 98.9577 64.8199C94.835 89.5817 111.037 118.57 135.145 129.568C148.825 135.81 162.112 134.919 171.8 128.457L180.793 122.458C171.104 128.921 157.818 129.812 144.138 123.57C120.031 112.572 103.828 83.5836 107.951 58.8218C109.735 48.1117 115.029 39.9482 122.415 35.0217L113.422 41.0199Z" fill="#FFC727"/>
<g opacity="0.1">
<path d="M160.247 89.8961C161.402 90.6755 161.869 92.4999 161.333 93.9747C161.249 94.1617 161.076 94.5357 160.786 94.9089C160.467 95.3191 159.976 95.7999 159.302 95.9626C158.688 96.1276 157.981 96.0238 157.327 95.763C156.055 95.1336 154.775 93.9676 153.127 91.7873C152.526 91.0699 152.021 90.7061 151.488 90.5286C150.988 90.3164 150.339 90.3675 149.754 90.4948C148.73 90.7203 147.738 91.3708 147.417 91.6254L144.008 96.0128L150.512 104.616C151.411 105.804 151.439 107.726 150.543 108.879C149.648 110.032 148.205 109.932 147.306 108.743L129.623 85.3523C128.694 84.1234 128.667 82.2794 129.562 81.1267L134.735 74.4686C138.17 70.0466 143.789 70.3176 147.356 75.0366C149.336 77.6554 150.207 81.0678 150.019 84.4393C150.697 84.3513 151.4 84.3803 152.14 84.6027C153.587 85.0128 155.073 85.9934 156.333 87.6599C157.203 88.8864 157.856 89.5283 158.215 89.8505C158.825 89.4513 159.562 89.4466 160.247 89.8961ZM144.235 87.0353C145.88 84.9186 145.83 81.3852 144.151 79.164C142.413 76.8666 139.704 76.7495 138.06 78.8662L134.505 83.4414L140.681 91.6105L144.235 87.0353Z" fill="black"/>
</g>
<g opacity="0.1">
<path d="M122.154 50.7972C133.45 33.1328 160.247 36.2859 176.545 57.2794C185.395 68.4609 189.134 82.6296 187.177 94.3855C186.366 99.2538 184.58 103.708 181.774 107.365C168.746 124.831 140.367 118.301 125.635 95.5334C133.653 107.787 147.072 116.086 159.032 115.875C172.409 115.846 181.263 106.477 183.361 93.8803C184.77 85.4197 183.132 75.5048 177.771 65.9835C164.587 42.2007 136.046 34.6854 123.22 51.8084C120.596 55.1886 118.898 59.4071 118.125 64.0491C116.737 72.3894 118.33 82.1009 122.881 90.8074C118.033 81.5603 116.305 71.2179 117.784 62.3299C118.495 58.0549 119.949 54.1176 122.154 50.7972Z" fill="black"/>
</g>
<g opacity="0.1">
<path d="M159.709 65.66C164.562 62.0182 167.813 62.0205 170.631 65.748C173.525 69.5767 173.263 74.9227 170.361 79.487L171.938 81.573C172.57 82.4082 172.59 83.6905 171.982 84.4739C171.374 85.2572 170.364 85.2462 169.733 84.411L168.104 82.2558C165.989 84.4236 163.533 85.7365 160.851 86.2315C160.131 86.4028 159.459 86.1734 158.905 85.4403C158.089 84.3607 158.066 82.7422 158.853 81.7302C159.155 81.3404 159.566 81.0859 159.979 81.0356C162.065 80.6891 163.835 79.9859 165.494 78.541L160.309 71.6809C155.61 75.1247 152.439 75.4295 149.464 71.4939C146.649 67.7704 146.857 62.422 149.762 57.9922L149.21 57.263C148.579 56.4278 148.587 55.1149 149.195 54.3315C149.804 53.5482 150.783 53.5898 151.415 54.425L151.994 55.1911C153.675 53.5105 155.443 52.5354 157.373 52.0443C158.014 51.8385 158.765 51.9013 159.396 52.7365C160.212 53.8161 160.208 55.4685 159.425 56.4773C159.169 56.8057 158.838 57.025 158.425 57.1452C156.987 57.5577 155.729 58.1407 154.656 58.9751L159.709 65.66ZM167.603 76.1013C169.042 73.7677 169.088 71.5127 167.825 69.8431C166.667 68.3117 165.398 68.0886 162.813 69.7669L167.603 76.1013ZM157.152 67.5056L152.495 61.3464C151.029 63.6438 151.116 65.8721 152.273 67.4035C153.376 68.8625 154.544 69.1509 157.152 67.5056Z" fill="black"/>
</g>
<path opacity="0.1" d="M113.422 41.0199C106.036 45.9463 100.741 54.1107 98.9577 64.8199C94.835 89.5817 111.037 118.57 135.145 129.568C148.825 135.81 162.112 134.919 171.8 128.457L180.793 122.458C171.104 128.921 157.818 129.812 144.138 123.57C120.031 112.572 103.828 83.5836 107.951 58.8218C109.735 48.1117 115.029 39.9482 122.415 35.0217L113.422 41.0199Z" fill="black"/>
<path d="M137.73 54.5012L144.893 55.8252L146.493 63.3751L148.094 55.8252L155.256 54.4973L148.124 52.7546L146.493 45.6227L144.862 52.7546L137.73 54.5012Z" fill="white"/>
<path d="M172.126 77.3193L176.129 78.0594L177.024 82.2795L177.918 78.0594L181.921 77.3169L177.935 76.3434L177.024 72.3567L176.112 76.3434L172.126 77.3193Z" fill="white"/>
<path d="M64.0728 122.816L68.076 123.556L68.9701 127.775L69.865 123.556L73.8683 122.814L69.8823 121.839L68.9701 117.853L68.0587 121.839L64.0728 122.816Z" fill="white"/>
<path d="M138.745 65.0723C140.238 65.0723 140.241 67.3933 138.745 67.3933C137.251 67.3933 137.249 65.0723 138.745 65.0723Z" fill="white"/>
</svg>
