<!DOCTYPE svg PUBLIC "-//W3C//DTD SVG 1.1//EN" "http://www.w3.org/Graphics/SVG/1.1/DTD/svg11.dtd">
<!-- Uploaded to: SVG Repo, www.svgrepo.com, Transformed by: SVG Repo Mixer Tools -->
<svg width="800px" height="800px" viewBox="-3.2 -3.2 38.40 38.40" xmlns="http://www.w3.org/2000/svg" fill="#FFFFFF" stroke="#FFFFFF">
<g id="SVGRepo_bgCarrier" stroke-width="0"/>
<g id="SVGRepo_tracerCarrier" stroke-linecap="round" stroke-linejoin="round"/>
<g id="SVGRepo_iconCarrier"> <defs> <style>.cls-1{fill:#FFFFFFFFFFFF04009a;}.cls-2{fill:#FFFFFFFFFFFF;}</style> </defs> <g data-name="2. Health Message" id="_2._Health_Message"> <path class="cls-1" d="M31.5,10.14,27.6,7.2a1,1,0,0,0-1.2,1.6L29.32,11,16.59,20.33a1,1,0,0,1-1.18,0L2.68,11,5.6,8.8A1,1,0,0,0,4.4,7.2L.5,10.14A1,1,0,0,0,0,11V29a3,3,0,0,0,3,3H29a3,3,0,0,0,3-3V11A1,1,0,0,0,31.5,10.14ZM30,29a1,1,0,0,1-1,1H3a1,1,0,0,1-1-1V13l12.23,9a3,3,0,0,0,3.54,0L30,13Z"/> <path class="cls-1" d="M5,28a1,1,0,0,1-.71-.29,1,1,0,0,1,0-1.42l4-4a1,1,0,0,1,1.42,1.42l-4,4A1,1,0,0,1,5,28Z"/> <path class="cls-1" d="M27,28a1,1,0,0,1-.71-.29l-4-4a1,1,0,0,1,1.42-1.42l4,4a1,1,0,0,1,0,1.42A1,1,0,0,1,27,28Z"/> <path class="cls-1" d="M16,16a8,8,0,1,1,8-8A8,8,0,0,1,16,16ZM16,2a6,6,0,1,0,6,6A6,6,0,0,0,16,2Z"/> <path class="cls-2" d="M19,7H17V5a1,1,0,0,0-2,0V7H13a1,1,0,0,0,0,2h2v2a1,1,0,0,0,2,0V9h2a1,1,0,0,0,0-2Z"/> </g> </g>
</svg>