<svg fill="#ffffff" height="200px" width="200px" version="1.1" id="Layer_1" xmlns="http://www.w3.org/2000/svg" xmlns:xlink="http://www.w3.org/1999/xlink" viewBox="0 0 491.796 491.796" xml:space="preserve" stroke="#ffffff"><g id="SVGRepo_bgCarrier" stroke-width="0"></g><g id="SVGRepo_tracerCarrier" stroke-linecap="round" stroke-linejoin="round"></g><g id="SVGRepo_iconCarrier"> <g> <g> <path d="M450.944,453.437c-136.295-81.1-140.268-188.436-136.377-228.167h105.411c8.294,0,15.77-4.977,18.924-12.636 c3.174-7.66,1.413-16.466-4.444-22.323L250.137,5.99c-7.987-7.987-20.951-7.987-28.959,0L36.858,190.31 c-5.857,5.857-7.619,14.664-4.444,22.323c3.174,7.659,10.65,12.636,18.924,12.636h82.002 c4.854,117.74,84.439,220.488,198.533,253.399c39.649,11.448,72.97,13.128,92.59,13.128c5.161,0,9.359-0.123,12.493-0.205 l3.502-0.082c9.216,0,17.306-6.144,19.743-15.032C462.658,467.569,458.869,458.148,450.944,453.437z"></path> </g> </g> </g></svg>